<svg width="43" height="44" viewBox="0 0 43 44" fill="none" xmlns="http://www.w3.org/2000/svg">
<path d="M1 9.66292C1 4.87852 4.87852 1 9.66292 1H33.3371C38.1215 1 42 4.87852 42 9.66292C42 10.178 41.5825 10.5955 41.0674 10.5955H1.93259C1.41753 10.5955 1 10.178 1 9.66292Z" stroke="#FF5600" stroke-width="2"/>
<path d="M3 10.6292V41.6635C3 42.4016 3.59836 43 4.33647 43V43C5.00348 43 5.56837 42.5082 5.66021 41.8475L10 10.6292" stroke="#FF5600" stroke-width="2"/>
<path d="M40 10.6292V41.6635C40 42.4016 39.4016 43 38.6635 43V43C37.9965 43 37.4316 42.5082 37.3398 41.8475L33 10.6292" stroke="#FF5600" stroke-width="2"/>
<path d="M8.5 24.1573H34.5" stroke="#FF5600" stroke-width="2"/>
</svg>
