<svg width="43" height="43" viewBox="0 0 43 43" fill="none" xmlns="http://www.w3.org/2000/svg">
<path d="M42 9.96342C42 12.4679 39.9795 15.2196 36.2013 17.4094C32.4782 19.5673 27.2795 21.0244 21.5 21.0244C15.7205 21.0244 10.5218 19.5673 6.79865 17.4094C3.02046 15.2196 1 12.4679 1 9.96342C1 7.53064 2.9273 5.29442 6.70362 3.6147C10.4288 1.9577 15.655 1 21.5 1C27.345 1 32.5712 1.9577 36.2964 3.6147C40.0727 5.29442 42 7.53064 42 9.96342Z" stroke="#FF5600" stroke-width="2"/>
<path d="M42 8.91463C42 9.79534 41.5738 10.7261 40.6104 11.6705C39.6436 12.6182 38.1931 13.5177 36.3198 14.2945C32.5776 15.8461 27.3386 16.8293 21.5 16.8293C15.6614 16.8293 10.4224 15.8461 6.68022 14.2945C4.80687 13.5177 3.35637 12.6182 2.38962 11.6705C1.42624 10.7261 1 9.79534 1 8.91463C1 8.03393 1.42624 7.10316 2.38962 6.15876C3.35637 5.21105 4.80687 4.31153 6.68022 3.53478C10.4224 1.98314 15.6614 1 21.5 1C27.3386 1 32.5776 1.98314 36.3198 3.53478C38.1931 4.31153 39.6436 5.21105 40.6104 6.15876C41.5738 7.10316 42 8.03393 42 8.91463Z" stroke="#FF5600" stroke-width="2"/>
<path d="M7 16.7805L1.10272 38.7333C1.03454 38.9871 1 39.2487 1 39.5116V43" stroke="#FF5600" stroke-width="2"/>
<path d="M36 16.7805L41.8973 38.7333C41.9655 38.9871 42 39.2487 42 39.5116V43" stroke="#FF5600" stroke-width="2"/>
<path d="M13 18.8781L9.14938 30.6195C9.05042 30.9212 9 31.2368 9 31.5543V33.561" stroke="#FF5600" stroke-width="2"/>
<path d="M30 18.8781L33.8506 30.6195C33.9496 30.9212 34 31.2368 34 31.5543V33.561" stroke="#FF5600" stroke-width="2"/>
</svg>
