<svg width="44" height="45" viewBox="0 0 44 45" fill="none" xmlns="http://www.w3.org/2000/svg">
<path d="M4.49989 18.5C4.16656 12.6667 7.19989 1 21.9999 1C36.7999 1 39.8332 12.6667 39.4999 18.5" stroke="#FF5600" stroke-width="2"/>
<path d="M5 18.5H4C2.34315 18.5 1 19.8431 1 21.5V37C1 38.6569 2.34315 40 4 40H40C41.6569 40 43 38.6569 43 37V21.5C43 19.8431 41.6569 18.5 40 18.5H39C37.3431 18.5 36 19.8431 36 21.5V29.5C36 31.1569 34.6569 32.5 33 32.5H11C9.34315 32.5 8 31.1569 8 29.5V21.5C8 19.8431 6.65685 18.5 5 18.5Z" stroke="#FF5600" stroke-width="2"/>
<path d="M4.7375 42.0333L5.01334 41.2978C5.30607 40.5171 6.05231 40 6.886 40H9L7.40231 43.1954C7.15575 43.6885 6.65174 44 6.1004 44C5.08411 44 4.38066 42.9849 4.7375 42.0333Z" stroke="#FF5600" stroke-width="2"/>
<path d="M39.2625 42.0333L38.9867 41.2978C38.6939 40.5171 37.9477 40 37.114 40H35L36.5977 43.1954C36.8443 43.6885 37.3483 44 37.8996 44C38.9159 44 39.6193 42.9849 39.2625 42.0333Z" stroke="#FF5600" stroke-width="2"/>
</svg>
