<svg width="44" height="37" viewBox="0 0 44 37" fill="none" xmlns="http://www.w3.org/2000/svg">
<path d="M4.02446 10C3.68207 7 6.79783 1 22 1C37.2022 1 40.3179 7 39.9755 10" stroke="#FF5600" stroke-width="2"/>
<path d="M5 10H4C2.34315 10 1 11.3431 1 13V22C1 23.6569 2.34315 25 4 25H40C41.6569 25 43 23.6569 43 22V13C43 11.3431 41.6569 10 40 10H39C37.3431 10 36 11.3431 36 13V14.7674C36 16.4243 34.6569 17.7674 33 17.7674H11C9.34315 17.7674 8 16.4243 8 14.7674V13C8 11.3431 6.65685 10 5 10Z" stroke="#FF5600" stroke-width="2"/>
<rect x="1" y="25" width="42" height="4" rx="1" stroke="#FF5600" stroke-width="2"/>
<path d="M4.39048 34.1778L4.99184 31.3714C5.28824 29.9882 6.51063 29 7.92525 29H9L7.31219 34.9073C7.1274 35.5541 6.53625 36 5.8636 36C4.90445 36 4.18951 35.1156 4.39048 34.1778Z" stroke="#FF5600" stroke-width="2"/>
<path d="M39.6095 34.1778L39.0082 31.3714C38.7118 29.9882 37.4894 29 36.0748 29H35L36.6878 34.9073C36.8726 35.5541 37.4638 36 38.1364 36C39.0955 36 39.8105 35.1156 39.6095 34.1778Z" stroke="#FF5600" stroke-width="2"/>
</svg>
