<svg width="187" height="22" viewBox="0 0 187 22" fill="none" xmlns="http://www.w3.org/2000/svg">
<path d="M10.612 21.42C12.9267 21.42 14.868 20.846 16.436 19.698C18.0133 18.55 19.124 16.996 19.768 15.036L15.932 13.972C15.5587 15.1853 14.9287 16.1327 14.042 16.814C13.1553 17.4953 12.012 17.836 10.612 17.836C8.69867 17.836 7.25667 17.2107 6.286 15.96C5.32467 14.7 4.844 13.02 4.844 10.92C4.844 8.82 5.32467 7.14467 6.286 5.894C7.25667 4.634 8.69867 4.004 10.612 4.004C12.012 4.004 13.1553 4.34467 14.042 5.026C14.9287 5.698 15.5587 6.64533 15.932 7.868L19.768 6.804C19.124 4.844 18.0133 3.29 16.436 2.142C14.868 0.993999 12.9267 0.42 10.612 0.42C8.596 0.42 6.85533 0.858666 5.39 1.736C3.934 2.61333 2.80933 3.84067 2.016 5.418C1.232 6.99533 0.84 8.82933 0.84 10.92C0.84 13.0107 1.232 14.8447 2.016 16.422C2.80933 17.9993 3.934 19.2267 5.39 20.104C6.85533 20.9813 8.596 21.42 10.612 21.42ZM24.2506 21H33.1826C35.2453 21 36.776 20.4353 37.7746 19.306C38.7826 18.1673 39.2866 16.6973 39.2866 14.896C39.2866 13.9253 39.0486 13.034 38.5726 12.222C38.106 11.4007 37.4013 10.794 36.4586 10.402C37.056 10.038 37.5226 9.52467 37.8586 8.862C38.1946 8.19933 38.3626 7.41067 38.3626 6.496C38.3626 5.60933 38.1573 4.732 37.7466 3.864C37.336 2.996 36.6873 2.27733 35.8006 1.708C34.914 1.12933 33.752 0.839999 32.3146 0.839999H24.2506V21ZM28.1146 8.708V4.396H32.2586C32.9866 4.396 33.542 4.606 33.9246 5.026C34.3073 5.446 34.4986 5.964 34.4986 6.58C34.4986 7.31733 34.284 7.85867 33.8546 8.204C33.4346 8.54 32.9026 8.708 32.2586 8.708H28.1146ZM28.1146 17.416V12.264H32.7906C33.6773 12.264 34.34 12.502 34.7786 12.978C35.2266 13.4447 35.4506 14.0373 35.4506 14.756C35.4506 15.568 35.1986 16.2167 34.6946 16.702C34.2 17.178 33.5653 17.416 32.7906 17.416H28.1146ZM43.4787 21H47.2867V11.816L55.3228 21H60.1387L51.1788 10.78L59.6068 0.839999H54.9587L47.2867 10.136V0.839999H43.4787V21Z" fill="#FF5600"/>
<path d="M70.5053 21H74.3133V4.396H83.6653V0.839999H70.5053V21ZM87.2998 21H91.1078V14.168H95.8118C95.9985 14.168 96.2598 14.1587 96.5958 14.14C96.9318 14.1213 97.2305 14.0933 97.4918 14.056C99.2838 13.776 100.6 13.0387 101.44 11.844C102.28 10.64 102.7 9.19333 102.7 7.504C102.7 5.80533 102.285 4.35867 101.454 3.164C100.623 1.96933 99.3025 1.232 97.4918 0.951999C97.2305 0.905333 96.9318 0.877333 96.5958 0.867999C96.2692 0.849332 96.0078 0.839999 95.8118 0.839999H87.2998V21ZM91.1078 10.612V4.396H95.6438C95.8398 4.396 96.0545 4.40533 96.2878 4.424C96.5212 4.44267 96.7358 4.48 96.9318 4.536C97.4452 4.676 97.8418 4.914 98.1218 5.25C98.4018 5.57667 98.5932 5.94533 98.6958 6.356C98.8078 6.75733 98.8638 7.14 98.8638 7.504C98.8638 7.868 98.8078 8.25533 98.6958 8.666C98.5932 9.06733 98.4018 9.436 98.1218 9.772C97.8418 10.0987 97.4452 10.332 96.9318 10.472C96.7358 10.528 96.5212 10.5653 96.2878 10.584C96.0545 10.6027 95.8398 10.612 95.6438 10.612H91.1078ZM109.319 21H113.379L122.899 0.839999H118.839L114.107 11.34L109.543 0.839999H105.231L112.119 15.344L109.319 21ZM126.248 21H130.056V4.396H139.072V21H142.88V0.839999H126.248V21ZM148.211 21H152.019V4.396H161.035V21H164.843V0.839999H148.211V21ZM168.773 21H172.693L173.967 16.8H181.555L182.857 21H186.777L180.617 0.839999H174.933L168.773 21ZM175.045 13.244L177.733 4.41L180.463 13.244H175.045Z" fill="#2D2D2D"/>
</svg>
