<svg width="50" height="50" viewBox="0 0 50 50" fill="none" xmlns="http://www.w3.org/2000/svg">
<path d="M43 23C43 29.7935 38.538 35.288 33.8617 39.1652C31.5422 41.0884 29.2174 42.5731 27.4704 43.5774C26.598 44.0789 25.8725 44.459 25.3676 44.7125C25.2275 44.7829 25.1044 44.8435 25 44.8942C24.8956 44.8435 24.7725 44.7829 24.6324 44.7125C24.1275 44.459 23.402 44.0789 22.5296 43.5774C20.7826 42.5731 18.4578 41.0884 16.1383 39.1652C11.462 35.288 7 29.7935 7 23C7 13.0589 15.0589 5 25 5C34.9411 5 43 13.0589 43 23Z" stroke="#FF5600" stroke-width="2"/>
<circle cx="25" cy="23" r="7" stroke="#FF5600" stroke-width="2"/>
</svg>
