<svg width="50" height="39" viewBox="0 0 50 39" fill="none" xmlns="http://www.w3.org/2000/svg">
<path d="M29.5323 17.7342L28.7893 17.0098L30.2391 15.5237L30.9822 16.2491L38.6257 23.71C39.0377 24.1085 39.3678 24.5818 39.5982 25.1059C39.8171 25.6082 39.9313 26.1499 39.9323 26.6979C39.9313 27.3289 39.7798 27.9505 39.4902 28.511C39.3418 28.7974 39.1612 29.0672 38.9506 29.3122C38.7326 29.5675 38.4877 29.7968 38.2189 29.9971L28.7488 37.1C28.7477 37.101 28.7467 37.101 28.7457 37.102C28.2963 37.4373 27.793 37.6936 27.2564 37.8607C26.7333 38.0247 26.1885 38.1067 25.6405 38.1056C24.9628 38.1067 24.2903 37.9821 23.6583 37.7372C23.0107 37.4881 22.4212 37.1072 21.9282 36.6184C21.9262 36.6174 21.9251 36.6163 21.9241 36.6153L8.02974 22.7199L7.01682 17.1499L6.83105 16.1287L8.87349 15.7582L9.05926 16.7784L9.95593 21.7112L23.3905 35.1457C23.679 35.4311 24.0257 35.6543 24.4055 35.8006C24.7988 35.9532 25.2181 36.031 25.6415 36.03C25.9799 36.031 26.3161 35.9802 26.6389 35.8795C26.9502 35.7819 27.2429 35.6335 27.5044 35.4384L36.9745 28.3356C36.9756 28.3356 36.9756 28.3356 36.9766 28.3345C37.1219 28.2256 37.2558 28.101 37.3741 27.963C37.48 27.8395 37.5713 27.7035 37.646 27.5582C37.783 27.2926 37.8557 26.9978 37.8567 26.6979C37.8557 26.4364 37.8017 26.1779 37.6969 25.9392C37.5754 25.6621 37.4011 25.412 37.1832 25.2024C37.1811 25.2014 37.18 25.1993 37.178 25.1982L29.5323 17.7342Z" fill="#FF5600"/>
<path d="M29.3324 15.9036L30.2986 15.5237L31.0583 17.4551L30.0921 17.835L20.5213 21.5981C20.1995 21.7247 19.8571 21.7891 19.5125 21.7901C18.9594 21.7901 18.4176 21.6251 17.9599 21.3148C17.5012 21.0055 17.1463 20.5655 16.9398 20.0518V20.0507L16.3067 18.468C16.1749 18.139 16.1074 17.7883 16.1074 17.4333C16.1085 16.8937 16.2631 16.3654 16.5526 15.9098C16.8505 15.4418 17.2812 15.0712 17.7887 14.8481C17.7897 14.8481 17.7897 14.8481 17.7908 14.8471L31.4921 8.85367L32.4427 8.4375L33.275 10.3388L32.3244 10.755L18.6241 16.7484C18.4923 16.8065 18.3813 16.903 18.3045 17.0244C18.2256 17.1469 18.1841 17.2891 18.1831 17.4354C18.1831 17.5247 18.2007 17.6139 18.2339 17.698L18.867 19.2796C18.9189 19.4083 19.0071 19.5183 19.1223 19.5951C19.2365 19.6729 19.3724 19.7145 19.5104 19.7145C19.5966 19.7145 19.6806 19.6979 19.7605 19.6667H19.7616L29.3324 15.9036Z" fill="#FF5600"/>
<path d="M17.0873 9.30705L16.0557 9.19081L16.2892 7.12866L17.3208 7.2449L22.7237 7.85618L26.4058 11.3132L27.1624 12.0241L25.7416 13.5372L24.9851 12.8263L21.8052 9.84152L17.0873 9.30705Z" fill="#FF5600"/>
<path d="M40.5227 18.8936L40.9804 17.9626L42.8433 18.878L42.3856 19.8089L39.7122 25.2513L39.2545 26.1822L37.3916 25.2679L37.8493 24.3359L40.5227 18.8936Z" fill="#FF5600"/>
<path d="M21.5401 34.8532L22.3652 34.2232L23.6241 35.8734L22.799 36.5033L20.5376 38.2292C20.5355 38.2302 20.5334 38.2323 20.5314 38.2334C20.026 38.6132 19.4105 38.8177 18.7775 38.8145C18.381 38.8145 17.9887 38.7346 17.6224 38.581C17.2404 38.4212 16.899 38.1804 16.6198 37.8753C16.6188 37.8743 16.6178 37.8743 16.6178 37.8732L9.38207 29.9142C9.38103 29.9132 9.37999 29.9121 9.37895 29.91C8.90778 29.388 8.64833 28.7082 8.6504 28.0056C8.64833 27.2543 8.94307 26.533 9.47132 25.9995C9.47236 25.9975 9.47443 25.9964 9.47547 25.9954L11.1246 24.3463L11.8583 23.6125L13.3258 25.08L12.592 25.8138L10.945 27.4608C10.8028 27.605 10.724 27.8012 10.726 28.0046C10.724 28.1945 10.7935 28.3782 10.9201 28.5204L18.1516 36.4753C18.2284 36.5583 18.3219 36.6237 18.4256 36.6673C18.5388 36.715 18.6602 36.7389 18.7837 36.7389C18.9632 36.741 19.1376 36.6839 19.2808 36.576L21.5401 34.8532Z" fill="#FF5600"/>
<path fill-rule="evenodd" clip-rule="evenodd" d="M0 13.9265L13.9275 0L19.8691 5.94152L5.94152 19.868L0 13.9265ZM2.93599 13.9265L13.9275 2.93496L16.9331 5.94152L5.94152 16.9331L2.93599 13.9265Z" fill="#FF5600"/>
<path fill-rule="evenodd" clip-rule="evenodd" d="M43.6199 21.5865L29.6924 7.66003L35.6339 1.71851L49.5615 15.645L43.6199 21.5865ZM43.6199 18.6516L32.6284 7.66003L35.6339 4.65346L46.6255 15.645L43.6199 18.6516Z" fill="#FF5600"/>
</svg>
